# xmcd
#
# Track frame offsets: 
#        150
#        49901
#        96776
#        142151
#        175076
#        198026
#        214151
#
# Disc length: 3794 seconds
#
# Revision: 0
# Processed by: cddbd v1.4PL0 Copyright (c) Steve Scherf et al.
# Submitted via: ExactAudioCopy v0.90b4
#
DISCID=620ed007
DTITLE=Van Morrison - An Evening In Brighton, disc 3
DYEAR=1994
DGENRE=Celtic
TTITLE0=In The Garden > You Send Me
TTITLE1=Richard Gere intro > And The Healing Has Begun
TTITLE2=Vanlose Stairway > Trans-Euro Train
TTITLE3=Northern Muse (Solid Ground) > When Heart Is Open
TTITLE4=So Quiet In Here > That's Where It's At
TTITLE5=Have I Told You Lately
TTITLE6=Shakin' All Over > Walking The Dog > Gloria > Baby Please Don'
TTITLE6=t Go
EXTD=
EXTT0=
EXTT1=
EXTT2=
EXTT3=
EXTT4=
EXTT5=
EXTT6=
PLAYORDER=
